<svg xmlns="http://www.w3.org/2000/svg" style="display: none;">
    <symbol id="arrow-left" viewBox="0 0 24 24">
        <path d="M7.3925 11.8572L10.745 8.40897L9.86116 7.5L5 12.5L9.86116 17.5L10.745 16.591L7.3925 13.1428H19V11.8572H7.3925Z"/>
    </symbol>

    <symbol id="arrow-right" viewBox="0 0 24 24">
        <path d="M16.6075 11.8572L13.255 8.40897L14.1388 7.5L19 12.5L14.1388 17.5L13.255 16.591L16.6075 13.1428H5V11.8572H16.6075Z"/>
    </symbol>

    <symbol id="open-in-new" viewBox="0 -960 960 960">
        <path d="M200-120q-33 0-56.5-23.5T120-200v-560q0-33 23.5-56.5T200-840h280v80H200v560h560v-280h80v280q0 33-23.5 56.5T760-120H200Zm188-212-56-56 372-372H560v-80h280v280h-80v-144L388-332Z"/>
    </symbol>

    <symbol id="undo" viewBox="0 -960 960 960">
        <path d="M280-200v-80h284q63 0 109.5-40T720-420q0-60-46.5-100T564-560H312l104 104-56 56-200-200 200-200 56 56-104 104h252q97 0 166.5 63T800-420q0 94-69.5 157T564-200H280Z" />
    </symbol>

    <symbol id="redo" viewBox="0 -960 960 960">
        <path d="M396-200q-97 0-166.5-63T160-420q0-94 69.5-157T396-640h252L544-744l56-56 200 200-200 200-56-56 104-104H396q-63 0-109.5 40T240-420q0 60 46.5 100T396-280h284v80H396Z" />
    </symbol>

    <symbol id="restart-alt" viewBox="0 -960 960 960">
        <path d="M440-122q-121-15-200.5-105.5T160-440q0-66 26-126.5T260-672l57 57q-38 34-57.5 79T240-440q0 88 56 155.5T440-202v80Zm80 0v-80q87-16 143.5-83T720-440q0-100-70-170t-170-70h-3l44 44-56 56-140-140 140-140 56 56-44 44h3q134 0 227 93t93 227q0 121-79.5 211.5T520-122Z"/>
    </symbol>

    <symbol id="check" viewBox="0 -960 960 960">
        <path d="M382-240 154-468l57-57 171 171 367-367 57 57-424 424Z" />
    </symbol>

    <symbol id="close" viewBox="0 -960 960 960">
        <path d="m256-200-56-56 224-224-224-224 56-56 224 224 224-224 56 56-224 224 224 224-56 56-224-224-224 224Z"/>
    </symbol>

    <symbol id="github" viewBox="0 0 16 16">
        <path d="M8 0C3.58 0 0 3.58 0 8c0 3.54 2.29 6.53 5.47 7.59.4.07.55-.17.55-.38 0-.19-.01-.82-.01-1.49-2.01.37-2.53-.49-2.69-.94-.09-.23-.48-.94-.82-1.13-.28-.15-.68-.52-.01-.53.63-.01 1.08.58 1.23.82.72 1.21 1.87.87 2.33.66.07-.52.28-.87.51-1.07-1.78-.2-3.64-.89-3.64-3.95 0-.87.31-1.59.82-2.15-.08-.2-.36-1.02.08-2.12 0 0 .67-.21 2.2.82.64-.18 1.32-.27 2-.27.68 0 1.36.09 2 .27 1.53-1.04 2.2-.82 2.2-.82.44 1.1.16 1.92.08 2.12.51.56.82 1.27.82 2.15 0 3.07-1.87 3.75-3.65 3.95.29.25.54.73.54 1.48 0 1.07-.01 1.93-.01 2.2 0 .21.15.46.55.38A8.013 8.013 0 0016 8c0-4.42-3.58-8-8-8z"/>
    </symbol>

    <symbol id="goodreads" viewBox="0 0 1024 1024">
        <path d="M663.8 382.4c10.2 74.6-9.4 158-71.8 201.4-44.6 31-105.6 28.2-141.6 11.4-74.2-34.6-99-117.2-93.6-194.4 8.6-121.8 81.8-175.8 150.6-175 93.8-0.4 143.6 63.6 156.4 156.6zM960 176v672c0 61.8-50.2 112-112 112H176c-61.8 0-112-50.2-112-112V176c0-61.8 50.2-112 112-112h672c61.8 0 112 50.2 112 112zM724 626.4s-0.2-68-0.2-434.6h-58v80.6c-1.6 0.6-2.4-1-3.2-2.4-19.2-41.4-71.8-92.6-152-92-103.8 0.8-174.4 62.4-201.2 155.6-8.6 29.8-11.6 60.2-11 91.2 3.4 155.8 90.2 235.6 224.8 230.4 57.8-2.2 109-34 138-90.4 1-2 2.2-3.8 3.4-5.8 0.4 0.2 0.8 0.2 1.2 0.4 0.6 7.6 0.4 61.4 0.2 69-0.4 29.6-4 59-14.4 87-15.6 42-44.6 69.4-89 79-35.6 7.8-71.2 7.6-106.4-2.4-43-12.2-73-38-82.2-83.6-0.6-3.2-2.6-2.6-4.6-2.6h-53.6c1.6 21.2 6.4 40.6 17 58.4 48.4 81 165.4 97 256.4 74.8 99.8-24.6 134.6-109.8 134.8-212.6z"/>
    </symbol>

    <symbol id="instagram" viewBox="0 0 1000 1000">
        <path d="M295.42,6c-53.2,2.51-89.53,11-121.29,23.48-32.87,12.81-60.73,30-88.45,57.82S40.89,143,28.17,175.92c-12.31,31.83-20.65,68.19-23,121.42S2.3,367.68,2.56,503.46,3.42,656.26,6,709.6c2.54,53.19,11,89.51,23.48,121.28,12.83,32.87,30,60.72,57.83,88.45S143,964.09,176,976.83c31.8,12.29,68.17,20.67,121.39,23s70.35,2.87,206.09,2.61,152.83-.86,206.16-3.39S799.1,988,830.88,975.58c32.87-12.86,60.74-30,88.45-57.84S964.1,862,976.81,829.06c12.32-31.8,20.69-68.17,23-121.35,2.33-53.37,2.88-70.41,2.62-206.17s-.87-152.78-3.4-206.1-11-89.53-23.47-121.32c-12.85-32.87-30-60.7-57.82-88.45S862,40.87,829.07,28.19c-31.82-12.31-68.17-20.7-121.39-23S637.33,2.3,501.54,2.56,348.75,3.4,295.42,6m5.84,903.88c-48.75-2.12-75.22-10.22-92.86-17-23.36-9-40-19.88-57.58-37.29s-28.38-34.11-37.5-57.42c-6.85-17.64-15.1-44.08-17.38-92.83-2.48-52.69-3-68.51-3.29-202s.22-149.29,2.53-202c2.08-48.71,10.23-75.21,17-92.84,9-23.39,19.84-40,37.29-57.57s34.1-28.39,57.43-37.51c17.62-6.88,44.06-15.06,92.79-17.38,52.73-2.5,68.53-3,202-3.29s149.31.21,202.06,2.53c48.71,2.12,75.22,10.19,92.83,17,23.37,9,40,19.81,57.57,37.29s28.4,34.07,37.52,57.45c6.89,17.57,15.07,44,17.37,92.76,2.51,52.73,3.08,68.54,3.32,202s-.23,149.31-2.54,202c-2.13,48.75-10.21,75.23-17,92.89-9,23.35-19.85,40-37.31,57.56s-34.09,28.38-57.43,37.5c-17.6,6.87-44.07,15.07-92.76,17.39-52.73,2.48-68.53,3-202.05,3.29s-149.27-.25-202-2.53m407.6-674.61a60,60,0,1,0,59.88-60.1,60,60,0,0,0-59.88,60.1M245.77,503c.28,141.8,115.44,256.49,257.21,256.22S759.52,643.8,759.25,502,643.79,245.48,502,245.76,245.5,361.22,245.77,503m90.06-.18a166.67,166.67,0,1,1,167,166.34,166.65,166.65,0,0,1-167-166.34"/>
    </symbol>

    <symbol id="linkedin" viewBox="0 0 50 50">
        <path d="M41,4H9C6.24,4,4,6.24,4,9v32c0,2.76,2.24,5,5,5h32c2.76,0,5-2.24,5-5V9C46,6.24,43.76,4,41,4z M17,20v19h-6V20H17z M11,14.47c0-1.4,1.2-2.47,3-2.47s2.93,1.07,3,2.47c0,1.4-1.12,2.53-3,2.53C12.2,17,11,15.87,11,14.47z M39,39h-6c0,0,0-9.26,0-10 c0-2-1-4-3.5-4.04h-0.08C27,24.96,26,27.02,26,29c0,0.91,0,10,0,10h-6V20h6v2.56c0,0,1.93-2.56,5.81-2.56 c3.97,0,7.19,2.73,7.19,8.26V39z"/>
    </symbol>
</svg>