<svg width="512" height="512" viewBox="0 0 512 512" fill="none" xmlns="http://www.w3.org/2000/svg">
<rect width="512" height="512" rx="20" fill="#E0E4EA"/>
<path d="M63.7708 298.002H194.751V320.304H63.7708V298.002ZM66.6028 412.344H215.637V435H40.4068V187.2H210.327V209.856H66.6028V412.344ZM277.213 435V187.2H369.961C390.965 187.2 409.019 190.622 424.123 197.466C439.227 204.074 450.791 213.75 458.815 226.494C467.075 239.002 471.205 254.224 471.205 272.16C471.205 289.624 467.075 304.728 458.815 317.472C450.791 329.98 439.227 339.656 424.123 346.5C409.019 353.344 390.965 356.766 369.961 356.766H291.727L303.409 344.376V435H277.213ZM303.409 346.5L291.727 333.756H369.253C394.033 333.756 412.795 328.446 425.539 317.826C438.519 306.97 445.009 291.748 445.009 272.16C445.009 252.336 438.519 236.996 425.539 226.14C412.795 215.284 394.033 209.856 369.253 209.856H291.727L303.409 197.466V346.5Z" fill="black"/>
</svg>
