<svg width="512" height="512" viewBox="0 0 512 512" fill="none" xmlns="http://www.w3.org/2000/svg">
<rect width="512" height="512" rx="20" fill="#DFE4EB"/>
<path d="M66.5704 297.197H203.1V320.444H66.5704V297.197ZM69.5224 416.384H224.871V440H42.2164V181.7H219.336V205.316H69.5224V416.384ZM289.057 440V181.7H385.735C407.629 181.7 426.448 185.267 442.192 192.401C457.936 199.289 469.99 209.375 478.354 222.659C486.964 235.697 491.269 251.564 491.269 270.26C491.269 288.464 486.964 304.208 478.354 317.492C469.99 330.53 457.936 340.616 442.192 347.75C426.448 354.884 407.629 358.451 385.735 358.451H304.186L316.363 345.536V440H289.057ZM316.363 347.75L304.186 334.466H384.997C410.827 334.466 430.384 328.931 443.668 317.861C457.198 306.545 463.963 290.678 463.963 270.26C463.963 249.596 457.198 233.606 443.668 222.29C430.384 210.974 410.827 205.316 384.997 205.316H304.186L316.363 192.401V347.75Z" fill="black"/>
</svg>
